<svg xmlns="http://www.w3.org/2000/svg" xmlns:xlink="http://www.w3.org/1999/xlink" viewBox="0 0 400 400"><defs><style>.cls-1,.cls-10{fill:none;}.cls-2{isolation:isolate;}.cls-3{opacity:0.2;filter:url(#AI_Shadow_3);}.cls-4{fill:#ccc;}.cls-5{fill:#8ab4f8;}.cls-6{fill:#fff;}.cls-7{clip-path:url(#clip-path);}.cls-8{fill:#e8eaed;}.cls-13,.cls-9{fill:#dadce0;}.cls-10{stroke:#bdc1c6;stroke-miterlimit:10;stroke-width:3px;}.cls-11{fill:#bdc1c6;}.cls-12{fill:#eceff1;}.cls-13,.cls-16{mix-blend-mode:multiply;}.cls-13{opacity:0.6;}.cls-14,.cls-16{fill:#0f9d58;}.cls-15{fill:#4285f4;}.cls-16{opacity:0.25;}.cls-17{fill:#fbbc04;}.cls-18{fill:#ea4335;}.cls-19{fill:#34a853;}.cls-20{fill:#fbbc05;}</style><filter id="AI_Shadow_3" x="-15%" y="-15%" width="140%" height="130%" name="AI_Shadow_3"><feGaussianBlur result="blur" stdDeviation="10" in="SourceAlpha"/><feOffset result="offsetBlurredAlpha" dy="5" in="blur"/><feMerge><feMergeNode in="offsetBlurredAlpha"/><feMergeNode in="SourceGraphic"/></feMerge></filter><clipPath id="clip-path"><path class="cls-1" d="M196.74,40.62v0h0c-1.17,0-2.34.06-3.51.11h-.38c-1.09,0-2.18.11-3.26.18L189,41l-3.07.24-.8.07c-1,.09-1.94.19-2.91.3l-1,.11c-.93.11-1.85.22-2.77.35l-1.09.15c-.88.12-1.76.26-2.64.4l-1.2.19-2.53.44-1.31.25c-.8.16-1.61.31-2.41.48l-1.41.31c-.77.16-1.53.33-2.3.51l-1.51.37-2.19.54-1.62.44-2.07.57-1.72.51c-.65.19-1.3.38-1.95.59s-1.24.4-1.86.6-1.2.38-1.8.59l-2,.71-1.62.57-2.32.88-1.3.5q-1.81.7-3.6,1.47a159.47,159.47,0,0,0,0,293.72q1.78.76,3.6,1.47l1.3.5,2.32.88c.54.2,1.08.38,1.62.57l2,.71c.6.21,1.2.4,1.8.59l1.86.6c.65.21,1.3.4,1.95.59l1.72.51c.69.2,1.38.38,2.07.57l1.62.44,2.19.54,1.51.37c.77.18,1.53.35,2.3.51l1.41.31c.8.17,1.61.32,2.41.48l1.31.25,2.53.44,1.2.19c.88.14,1.76.28,2.64.4l1.09.15c.92.13,1.84.24,2.77.35l1,.11c1,.11,1.93.21,2.91.3l.8.07L189,359l.63,0c1.08.07,2.17.13,3.26.18h.38c1.17,0,2.34.09,3.51.11h0v0H359.38V40.62Z"/></clipPath></defs><g class="cls-2"><g id="Layer_1" data-name="Layer 1"><g id="svg_shadow" data-name="svg shadow" class="cls-3"><circle class="cls-4" cx="200" cy="200" r="170"/></g><circle class="cls-5" cx="200" cy="200" r="169.94"/><path class="cls-6" d="M200,40.62a159.43,159.43,0,0,1,62,306.24A159.42,159.42,0,0,1,138,53.14a158.32,158.32,0,0,1,62-12.52m0-10.56A169.94,169.94,0,1,0,369.93,200,169.93,169.93,0,0,0,200,30.06Z"/><g class="cls-7"><path class="cls-8" d="M317.72,346.07a10.5,10.5,0,0,0,10.5-10.5V70.93a10.5,10.5,0,0,0-10.5-10.5h-278V346.07Z"/><path class="cls-9" d="M39.69,93.5H328.22a0,0,0,0,1,0,0V332.55a13.52,13.52,0,0,1-13.52,13.52h-275a0,0,0,0,1,0,0V93.5A0,0,0,0,1,39.69,93.5Z"/><line class="cls-10" x1="39.69" y1="93.5" x2="328.22" y2="93.5"/><circle class="cls-11" cx="311.8" cy="71.64" r="1.46"/><circle class="cls-11" cx="311.8" cy="76.96" r="1.46"/><circle class="cls-11" cx="311.8" cy="82.29" r="1.46"/><path class="cls-12" d="M40.59,123.2h258a3.46,3.46,0,0,1,3.46,3.46V313.3a3.46,3.46,0,0,1-3.46,3.46h-258a0,0,0,0,1,0,0V123.2A0,0,0,0,1,40.59,123.2Z"/><path class="cls-13" d="M349.5,246.85l-10.77-40.19a23.77,23.77,0,0,0,6.77-6,25.38,25.38,0,0,0,4-9.87V116.89a25.49,25.49,0,0,0-4-9.88c-3.25-4.46-8.21-7-13-9.46a55.85,55.85,0,0,1-7.44-4.28,54,54,0,0,1-6.26-5.68C315,83.76,311,79.8,305.68,78.07a21.12,21.12,0,0,0-6.6-.95,61.07,61.07,0,0,0-9.22.95,59.46,59.46,0,0,1-8.79.91,59.6,59.6,0,0,1-8.79-.91,60.94,60.94,0,0,0-9.21-.95,21.23,21.23,0,0,0-6.61.95c-5.33,1.73-9.29,5.69-13.11,9.52a54.85,54.85,0,0,1-6.27,5.68,55.71,55.71,0,0,1-7.43,4.28c-4.8,2.46-9.75,5-13,9.46s-4.11,9.91-5,15.22a57.6,57.6,0,0,1-1.8,8.46,55.15,55.15,0,0,1-3.41,7.58c-2.47,4.84-5,9.85-5,15.55s2.56,10.72,5,15.56a54.62,54.62,0,0,1,3.41,7.58,57.6,57.6,0,0,1,1.8,8.46c.86,5.31,1.75,10.79,5,15.21a23.73,23.73,0,0,0,6.76,6L205.15,274.8l36.2-7.08,27.81,24.22,11.91-44.47L293,291.94l27.81-24.22,28.7,5.61Z"/><polygon class="cls-14" points="272.83 288.68 245.02 264.45 208.83 271.53 243.13 143.53 307.13 160.68 272.83 288.68"/><polygon class="cls-15" points="296.67 288.68 324.47 264.45 360.67 271.53 326.37 143.53 262.37 160.68 296.67 288.68"/><polygon class="cls-16" points="284.75 244.2 278.4 220.62 271.45 218.37 282.31 252.88 284.75 244.2"/><path class="cls-12" d="M206.51,150.56c0-8.07,7.91-14.8,10.28-22.08,2.45-7.55.08-17.63,4.66-23.91s15-7.19,21.31-11.81S253,78.58,260.56,76.13c7.29-2.37,16.12,3,24.19,3s16.9-5.36,24.18-3c7.55,2.45,11.52,12.06,17.81,16.63s16.69,5.46,21.31,11.81,2.21,16.36,4.66,23.91c2.36,7.28,10.28,14,10.28,22.08s-7.92,14.8-10.28,22.08c-2.45,7.55-.09,17.63-4.66,23.91s-15,7.19-21.31,11.81S316.48,222.54,308.93,225c-7.28,2.37-16.11-3-24.18-3s-16.9,5.36-24.19,3c-7.55-2.45-11.52-12.06-17.8-16.63s-16.69-5.46-21.31-11.81-2.21-16.36-4.66-23.91C214.42,165.36,206.51,158.63,206.51,150.56Z"/><circle class="cls-6" cx="284.75" cy="150.56" r="63.11"/><path class="cls-15" d="M273.86,160.71,243.16,143a8.74,8.74,0,0,0-8.74,15.14l30.7,17.72a8.74,8.74,0,0,0,11.94-3.2A8.75,8.75,0,0,0,273.86,160.71Z"/><path class="cls-14" d="M335.07,143l-30.69-17.72a8.74,8.74,0,0,0-8.74,15.14l30.69,17.72A8.74,8.74,0,1,0,335.07,143Z"/><path class="cls-17" d="M325.12,160.23,310.79,152l-15.15,8.75a8.74,8.74,0,0,0,8.74,15.14l24.67-14.24A11.12,11.12,0,0,1,325.12,160.23Z"/><path class="cls-18" d="M244.38,140.89l14.33,8.27,15.15-8.75a8.74,8.74,0,0,0-8.74-15.14l-24.67,14.24A11.19,11.19,0,0,1,244.38,140.89Z"/><g id="g710"><path id="path702" class="cls-18" d="M136.75,192.17H140l9.13-9.13.45-3.87a41,41,0,0,0-66.75,20A4.88,4.88,0,0,1,86,199l18.25-3s.93-1.54,1.42-1.45a22.76,22.76,0,0,1,31.16-2.37Z"/><path id="path704" class="cls-15" d="M162.09,199.19a41.12,41.12,0,0,0-12.4-20L136.88,192a22.8,22.8,0,0,1,8.36,18.07v2.28a11.4,11.4,0,1,1,0,22.8H122.43l-2.27,2.31v13.68l2.27,2.28h22.81a29.67,29.67,0,0,0,16.85-54.24Z"/><path id="path706" class="cls-19" d="M99.6,253.28h22.8V235H99.6a11.4,11.4,0,0,1-4.71-1l-3.21,1-9.19,9.13-.8,3.2a29.42,29.42,0,0,0,17.91,6Z"/><path id="path708" class="cls-20" d="M99.6,194.06a29.66,29.66,0,0,0-17.91,53.17L94.92,234A11.4,11.4,0,1,1,110,218.92l13.23-13.23A29.58,29.58,0,0,0,99.6,194.06Z"/></g></g></g></g></svg>